<mxfile host="app.diagrams.net" agent="Mozilla/5.0 (Windows NT 10.0; Win64; x64) AppleWebKit/537.36 (KHTML, like Gecko) Chrome/137.0.0.0 Safari/537.36" version="27.1.5">
  <diagram name="Page-1" id="M8ph4g795yduoCmO1MPi">
    <mxGraphModel dx="1699" dy="1642" grid="1" gridSize="10" guides="1" tooltips="1" connect="1" arrows="1" fold="1" page="1" pageScale="1" pageWidth="827" pageHeight="1169" math="0" shadow="0">
      <root>
        <mxCell id="0" />
        <mxCell id="1" parent="0" />
        <mxCell id="12k7DQljcKBjRzbqHBUh-2" value="Address" style="ellipse;whiteSpace=wrap;html=1;align=center;" vertex="1" parent="1">
          <mxGeometry x="-20" y="-60" width="100" height="40" as="geometry" />
        </mxCell>
        <mxCell id="12k7DQljcKBjRzbqHBUh-3" value="Gender" style="ellipse;whiteSpace=wrap;html=1;align=center;fontStyle=4;" vertex="1" parent="1">
          <mxGeometry x="280" y="-50" width="100" height="40" as="geometry" />
        </mxCell>
        <mxCell id="12k7DQljcKBjRzbqHBUh-4" value="User Name" style="ellipse;whiteSpace=wrap;html=1;align=center;fontStyle=4;" vertex="1" parent="1">
          <mxGeometry x="140" y="-70" width="100" height="40" as="geometry" />
        </mxCell>
        <mxCell id="12k7DQljcKBjRzbqHBUh-5" value="Age" style="ellipse;whiteSpace=wrap;html=1;align=center;fontStyle=4;" vertex="1" parent="1">
          <mxGeometry x="240" y="80" width="100" height="40" as="geometry" />
        </mxCell>
        <mxCell id="12k7DQljcKBjRzbqHBUh-6" value="DOB" style="ellipse;whiteSpace=wrap;html=1;align=center;fontStyle=4;" vertex="1" parent="1">
          <mxGeometry x="-10" y="90" width="100" height="40" as="geometry" />
        </mxCell>
        <mxCell id="12k7DQljcKBjRzbqHBUh-7" value="Passenger" style="rounded=1;arcSize=10;whiteSpace=wrap;html=1;align=center;" vertex="1" parent="1">
          <mxGeometry x="120" y="20" width="100" height="40" as="geometry" />
        </mxCell>
        <mxCell id="12k7DQljcKBjRzbqHBUh-12" value="Received" style="shape=rhombus;perimeter=rhombusPerimeter;whiteSpace=wrap;html=1;align=center;" vertex="1" parent="1">
          <mxGeometry x="440" y="10" width="120" height="60" as="geometry" />
        </mxCell>
        <mxCell id="12k7DQljcKBjRzbqHBUh-13" value="Payment" style="rounded=1;arcSize=10;whiteSpace=wrap;html=1;align=center;" vertex="1" parent="1">
          <mxGeometry x="670" y="20" width="100" height="40" as="geometry" />
        </mxCell>
        <mxCell id="12k7DQljcKBjRzbqHBUh-14" value="Transaction ID" style="ellipse;whiteSpace=wrap;html=1;align=center;fontStyle=4;" vertex="1" parent="1">
          <mxGeometry x="670" y="-80" width="100" height="40" as="geometry" />
        </mxCell>
        <mxCell id="12k7DQljcKBjRzbqHBUh-15" value="Amount" style="ellipse;whiteSpace=wrap;html=1;align=center;fontStyle=4;" vertex="1" parent="1">
          <mxGeometry x="680" y="120" width="100" height="40" as="geometry" />
        </mxCell>
        <mxCell id="12k7DQljcKBjRzbqHBUh-16" value="Flight" style="rounded=1;arcSize=10;whiteSpace=wrap;html=1;align=center;" vertex="1" parent="1">
          <mxGeometry x="380" y="260" width="100" height="40" as="geometry" />
        </mxCell>
        <mxCell id="12k7DQljcKBjRzbqHBUh-17" value="Source" style="ellipse;whiteSpace=wrap;html=1;align=center;fontStyle=4;" vertex="1" parent="1">
          <mxGeometry x="380" y="360" width="100" height="40" as="geometry" />
        </mxCell>
        <mxCell id="12k7DQljcKBjRzbqHBUh-18" value="Flight no" style="ellipse;whiteSpace=wrap;html=1;align=center;fontStyle=4;" vertex="1" parent="1">
          <mxGeometry x="240" y="360" width="100" height="40" as="geometry" />
        </mxCell>
        <mxCell id="12k7DQljcKBjRzbqHBUh-19" value="Destination" style="ellipse;whiteSpace=wrap;html=1;align=center;fontStyle=4;" vertex="1" parent="1">
          <mxGeometry x="520" y="360" width="100" height="40" as="geometry" />
        </mxCell>
        <mxCell id="12k7DQljcKBjRzbqHBUh-35" value="" style="endArrow=none;html=1;rounded=0;entryX=0.5;entryY=1;entryDx=0;entryDy=0;exitX=0;exitY=0.5;exitDx=0;exitDy=0;" edge="1" parent="1" source="12k7DQljcKBjRzbqHBUh-7" target="12k7DQljcKBjRzbqHBUh-2">
          <mxGeometry width="50" height="50" relative="1" as="geometry">
            <mxPoint x="30" y="90" as="sourcePoint" />
            <mxPoint x="80" y="40" as="targetPoint" />
          </mxGeometry>
        </mxCell>
        <mxCell id="12k7DQljcKBjRzbqHBUh-36" value="" style="endArrow=none;html=1;rounded=0;" edge="1" parent="1">
          <mxGeometry width="50" height="50" relative="1" as="geometry">
            <mxPoint x="70" y="90" as="sourcePoint" />
            <mxPoint x="120" y="50" as="targetPoint" />
          </mxGeometry>
        </mxCell>
        <mxCell id="12k7DQljcKBjRzbqHBUh-38" value="" style="endArrow=none;html=1;rounded=0;entryX=1;entryY=1;entryDx=0;entryDy=0;" edge="1" parent="1" target="12k7DQljcKBjRzbqHBUh-7">
          <mxGeometry width="50" height="50" relative="1" as="geometry">
            <mxPoint x="265" y="80" as="sourcePoint" />
            <mxPoint x="315" y="30" as="targetPoint" />
          </mxGeometry>
        </mxCell>
        <mxCell id="12k7DQljcKBjRzbqHBUh-39" value="" style="endArrow=none;html=1;rounded=0;entryX=0;entryY=0.5;entryDx=0;entryDy=0;" edge="1" parent="1" target="12k7DQljcKBjRzbqHBUh-3">
          <mxGeometry width="50" height="50" relative="1" as="geometry">
            <mxPoint x="220" y="20" as="sourcePoint" />
            <mxPoint x="270" y="-30" as="targetPoint" />
          </mxGeometry>
        </mxCell>
        <mxCell id="12k7DQljcKBjRzbqHBUh-41" value="" style="endArrow=none;html=1;rounded=0;entryX=0.42;entryY=0.975;entryDx=0;entryDy=0;entryPerimeter=0;exitX=0.6;exitY=-0.075;exitDx=0;exitDy=0;exitPerimeter=0;" edge="1" parent="1" source="12k7DQljcKBjRzbqHBUh-7" target="12k7DQljcKBjRzbqHBUh-4">
          <mxGeometry width="50" height="50" relative="1" as="geometry">
            <mxPoint x="180" y="10" as="sourcePoint" />
            <mxPoint x="220" y="-30" as="targetPoint" />
          </mxGeometry>
        </mxCell>
        <mxCell id="12k7DQljcKBjRzbqHBUh-42" value="" style="endArrow=none;html=1;rounded=0;entryX=0;entryY=0.5;entryDx=0;entryDy=0;" edge="1" parent="1" source="12k7DQljcKBjRzbqHBUh-7" target="12k7DQljcKBjRzbqHBUh-12">
          <mxGeometry width="50" height="50" relative="1" as="geometry">
            <mxPoint x="280" y="55" as="sourcePoint" />
            <mxPoint x="330" y="5" as="targetPoint" />
          </mxGeometry>
        </mxCell>
        <mxCell id="12k7DQljcKBjRzbqHBUh-44" value="" style="endArrow=none;html=1;rounded=0;entryX=0;entryY=0.5;entryDx=0;entryDy=0;exitX=1;exitY=0.5;exitDx=0;exitDy=0;" edge="1" parent="1" source="12k7DQljcKBjRzbqHBUh-12" target="12k7DQljcKBjRzbqHBUh-13">
          <mxGeometry width="50" height="50" relative="1" as="geometry">
            <mxPoint x="590" y="90" as="sourcePoint" />
            <mxPoint x="640" y="40" as="targetPoint" />
          </mxGeometry>
        </mxCell>
        <mxCell id="12k7DQljcKBjRzbqHBUh-46" value="" style="endArrow=none;html=1;rounded=0;exitX=0.59;exitY=0.075;exitDx=0;exitDy=0;exitPerimeter=0;" edge="1" parent="1" source="12k7DQljcKBjRzbqHBUh-13">
          <mxGeometry width="50" height="50" relative="1" as="geometry">
            <mxPoint x="730" y="10" as="sourcePoint" />
            <mxPoint x="730" y="-40" as="targetPoint" />
          </mxGeometry>
        </mxCell>
        <mxCell id="12k7DQljcKBjRzbqHBUh-50" value="" style="endArrow=none;html=1;rounded=0;exitX=0.5;exitY=0;exitDx=0;exitDy=0;" edge="1" parent="1" source="12k7DQljcKBjRzbqHBUh-15">
          <mxGeometry width="50" height="50" relative="1" as="geometry">
            <mxPoint x="680" y="110" as="sourcePoint" />
            <mxPoint x="730" y="60" as="targetPoint" />
          </mxGeometry>
        </mxCell>
        <mxCell id="12k7DQljcKBjRzbqHBUh-55" value="Checks for" style="shape=rhombus;perimeter=rhombusPerimeter;whiteSpace=wrap;html=1;align=center;" vertex="1" parent="1">
          <mxGeometry x="370" y="140" width="120" height="60" as="geometry" />
        </mxCell>
        <mxCell id="12k7DQljcKBjRzbqHBUh-56" value="" style="endArrow=none;html=1;rounded=0;" edge="1" parent="1">
          <mxGeometry width="50" height="50" relative="1" as="geometry">
            <mxPoint x="430" y="250" as="sourcePoint" />
            <mxPoint x="430" y="210" as="targetPoint" />
          </mxGeometry>
        </mxCell>
        <mxCell id="12k7DQljcKBjRzbqHBUh-58" value="" style="endArrow=none;html=1;rounded=0;exitX=0.5;exitY=0;exitDx=0;exitDy=0;" edge="1" parent="1" source="12k7DQljcKBjRzbqHBUh-55">
          <mxGeometry width="50" height="50" relative="1" as="geometry">
            <mxPoint x="430" y="130" as="sourcePoint" />
            <mxPoint x="414" y="40" as="targetPoint" />
          </mxGeometry>
        </mxCell>
        <mxCell id="12k7DQljcKBjRzbqHBUh-59" value="" style="endArrow=none;html=1;rounded=0;entryX=0.44;entryY=0.975;entryDx=0;entryDy=0;entryPerimeter=0;" edge="1" parent="1" target="12k7DQljcKBjRzbqHBUh-16">
          <mxGeometry width="50" height="50" relative="1" as="geometry">
            <mxPoint x="305" y="360" as="sourcePoint" />
            <mxPoint x="355" y="310" as="targetPoint" />
          </mxGeometry>
        </mxCell>
        <mxCell id="12k7DQljcKBjRzbqHBUh-60" value="" style="endArrow=none;html=1;rounded=0;exitX=0.66;exitY=-0.075;exitDx=0;exitDy=0;exitPerimeter=0;" edge="1" parent="1" source="12k7DQljcKBjRzbqHBUh-17">
          <mxGeometry width="50" height="50" relative="1" as="geometry">
            <mxPoint x="430" y="370" as="sourcePoint" />
            <mxPoint x="420" y="300" as="targetPoint" />
            <Array as="points">
              <mxPoint x="440" y="360" />
            </Array>
          </mxGeometry>
        </mxCell>
        <mxCell id="12k7DQljcKBjRzbqHBUh-61" value="" style="endArrow=none;html=1;rounded=0;" edge="1" parent="1">
          <mxGeometry width="50" height="50" relative="1" as="geometry">
            <mxPoint x="560" y="360" as="sourcePoint" />
            <mxPoint x="420" y="300" as="targetPoint" />
          </mxGeometry>
        </mxCell>
      </root>
    </mxGraphModel>
  </diagram>
</mxfile>
